<svg width="687" height="356" viewBox="0 0 687 356" fill="none" xmlns="http://www.w3.org/2000/svg">
<g clip-path="url(#clip0_361_67)">
<path opacity="0.2" d="M23.0006 115.786C46.3132 103.232 69.8599 104.005 93.2505 95.3616C107.189 90.1952 120.984 78.8484 134.428 62.2869C147.079 46.7394 159.015 22.9352 171.939 11.5401C184.278 0.676158 196.824 0.386452 209.319 6.03571C246.752 22.8869 283.041 56.9756 320.903 49.395C349.676 43.6492 378.254 24.3355 407.093 23.9975C433.539 23.6595 459.608 52.7749 485.95 51.6644C507.182 50.747 528.428 54.1751 549.582 62.5766C559.255 66.4393 568.708 73.5371 578.16 80.6349C590.434 89.8572 593.984 91.0643 603.553 97.293C630.948 115.206 657.863 121.966 681.032 194.972C683.151 201.635 685.31 209.313 686.103 220.08C689.822 270.827 648.878 265.709 643.287 266.481C614.241 270.489 585.194 272.758 556.187 280.87C478.929 302.453 483.493 333.403 419.874 349.096C331.993 370.727 341.524 307.137 242.331 323.215C192.365 331.327 143.698 289.03 94.0436 328.768C82.6798 337.845 71.8492 341.273 60.4724 331.23C53.6203 325.195 43.7648 299.797 55.9737 283.67C58.9902 279.663 62.2407 277.635 64.8931 270.344C67.3115 263.681 69.5088 249.726 68.1176 237.269C67.3765 230.606 65.9462 225.826 64.477 221.963C58.5221 206.222 51.514 201.925 44.844 194.634C31.2309 179.811 17.4358 169.575 3.95268 152.337C2.31443 150.261 0.299115 145.432 0.689175 138.335C0.975219 133.072 2.43144 130.995 3.66663 129.837C10.0766 123.849 16.5256 119.311 23.0006 115.834V115.786Z" stroke="url(#paint0_linear_361_67)" stroke-width="1.422" stroke-miterlimit="10"/>
<path opacity="0.23" d="M34.5072 116.655C49.4205 108.64 64.4378 106.225 79.4421 103.039C87.1003 101.445 94.7455 99.6105 102.378 96.81C115.835 91.7884 129.175 80.8279 142.151 64.8941C154.373 49.8777 165.918 26.9909 178.4 16.0304C190.323 5.55269 202.454 5.26299 214.52 10.6708C250.692 26.8461 285.758 59.5828 322.32 52.4367C350.183 47.0289 377.851 28.8257 405.78 28.7291C424.567 28.6809 443.173 43.7938 461.844 51.3745C468.605 54.1267 475.366 55.8649 482.153 55.5752C502.722 54.7061 523.305 57.9411 543.783 66.0046C553.144 69.6742 562.311 76.5306 571.477 83.387C583.335 92.2713 586.806 93.4301 596.077 99.4656C622.536 116.751 648.735 123.077 671.033 193.91C673.101 200.476 675.181 208.009 675.909 218.438C679.407 267.688 639.582 262.57 634.082 263.391C605.984 267.35 577.9 269.716 549.842 277.731C509.783 289.078 492.438 303.032 475.431 315.876C460.791 326.933 446.411 337.121 417.988 344.122C333.137 365.077 341.979 303.708 246.232 318.821C197.643 326.064 150.29 285.312 102.001 323.553C90.9489 332.292 80.4043 335.624 69.3396 325.967C62.6696 320.125 53.1131 295.741 64.7629 280.242C67.6623 276.428 70.7568 274.448 73.3052 267.398C75.6196 260.977 77.7129 247.554 76.3737 235.579C75.6586 229.157 74.2804 224.57 72.8631 220.804C69.2356 211.244 65.2179 206.029 61.1483 201.732C58.756 199.221 56.3376 197 53.9582 194.393C40.8782 180.004 27.5511 170.975 14.7312 153.399C13.2359 151.323 11.3896 146.446 11.8577 139.493C12.2088 134.327 13.665 132.251 14.9132 131.044C21.4012 124.863 27.9412 120.228 34.4942 116.655H34.5072Z" stroke="url(#paint1_linear_361_67)" stroke-width="1.422" stroke-miterlimit="10"/>
<path opacity="0.26" d="M46.0141 117.476C60.4074 109.702 74.8916 107.336 89.3628 104.294C96.748 102.749 104.133 100.963 111.492 98.2586C124.481 93.4302 137.34 82.8559 149.874 67.5015C161.667 53.0645 172.81 31.0469 184.863 20.4726C196.369 10.3812 208.071 10.0915 219.721 15.2579C254.618 30.7089 288.463 62.1902 323.737 55.4304C350.703 50.4089 377.448 33.268 404.453 33.4611C422.63 33.6059 440.625 48.2361 458.698 55.527C465.238 58.1344 471.791 59.8243 478.344 59.5346C498.25 58.6655 518.156 61.7074 537.984 69.4329C547.046 72.9576 555.914 79.5243 564.781 86.091C576.223 94.6373 579.629 95.7478 588.588 101.59C614.111 118.2 639.595 124.091 661.035 192.847C663.05 199.318 665.04 206.705 665.729 216.845C668.992 264.55 630.311 259.528 624.889 260.349C597.741 264.501 570.606 266.722 543.497 274.641C504.894 285.698 488.082 299.314 471.609 311.82C457.437 322.587 443.498 332.437 416.103 339.245C334.282 359.477 342.447 301.149 250.146 314.476C202.935 321.284 156.908 281.642 109.971 318.387C99.2314 326.788 88.9728 329.975 78.2331 320.704C71.7451 315.103 62.4877 291.685 73.5914 276.862C76.3608 273.193 79.3253 271.309 81.7697 264.55C83.98 258.418 85.9823 245.477 84.6821 233.986C83.98 227.805 82.6538 223.411 81.2886 219.79C77.791 210.568 73.9294 205.546 70.0028 201.346C67.7015 198.883 65.3741 196.71 63.0988 194.199C50.5388 180.245 37.6929 172.472 25.523 154.461C24.1578 152.434 22.4935 147.509 23.0396 140.652C23.4427 135.631 24.9119 133.506 26.1731 132.251C32.7391 125.877 39.3571 121.145 46.0141 117.476V117.476Z" stroke="url(#paint2_linear_361_67)" stroke-width="1.422" stroke-miterlimit="10"/>
<path opacity="0.29" d="M57.5208 118.296C71.381 110.716 85.3451 108.495 99.2963 105.501C106.408 104.004 113.52 102.266 120.62 99.6104C133.14 94.9269 145.531 84.7389 157.61 70.0122C168.987 56.1546 179.727 35.0061 191.337 24.8664C202.428 15.1612 213.701 14.8715 224.922 19.7965C258.545 34.5715 291.167 64.7492 325.167 58.4239C351.223 53.7887 377.058 37.7583 403.153 38.1928C420.706 38.4825 438.103 52.6781 455.564 59.6311C461.883 62.1418 468.215 63.7352 474.56 63.4455C493.79 62.5764 513.046 65.4734 532.198 72.8609C540.961 76.2408 549.53 82.5178 558.098 88.843C569.137 97.0031 572.452 98.1136 581.112 103.715C605.698 119.697 630.48 125.153 651.036 191.737C653.013 198.11 654.911 205.353 655.548 215.155C658.591 261.363 621.028 256.341 615.697 257.21C589.498 261.411 563.312 263.68 537.165 271.454C500.005 282.27 483.753 295.5 467.799 307.667C454.082 318.097 440.612 327.657 414.231 334.224C335.439 353.779 342.915 298.059 254.059 310.033C208.227 316.214 163.526 277.924 117.941 313.124C107.514 321.187 97.554 324.229 87.1134 315.393C80.8074 310.033 71.8491 287.629 82.4067 273.386C85.0461 269.861 87.8805 268.074 90.2079 261.604C92.3142 255.714 94.2255 243.304 92.9643 232.247C92.2882 226.308 91.014 222.108 89.7008 218.631C86.3463 209.795 82.6277 204.918 78.8571 200.863C76.6468 198.497 74.4235 196.372 72.2391 193.91C60.1993 180.39 47.7953 174.017 36.3276 155.475C35.0924 153.496 33.6102 148.474 34.2212 141.811C34.6763 136.886 36.1585 134.761 37.4457 133.458C44.0898 126.891 50.7988 122.014 57.5468 118.296H57.5208Z" stroke="url(#paint3_linear_361_67)" stroke-width="1.422" stroke-miterlimit="10"/>
<path opacity="0.32" d="M69.0277 119.166C82.3678 111.826 95.7989 109.702 109.217 106.805C116.056 105.308 122.908 103.666 129.734 101.107C141.774 96.5686 153.71 86.8152 165.334 72.6679C176.281 59.3414 186.631 39.1103 197.8 29.3569C208.474 20.038 219.318 19.7483 230.123 24.4319C262.485 38.5309 293.871 67.3566 326.584 61.4659C351.743 57.1686 376.655 42.2488 401.827 42.9731C418.769 43.4559 435.554 57.1686 452.418 63.8319C458.516 66.2461 464.627 67.7429 470.751 67.5015C489.318 66.6324 507.897 69.3846 526.399 76.4341C534.851 79.6691 543.133 85.6564 551.402 91.6919C562.025 99.514 565.275 100.576 573.623 105.984C597.273 121.338 621.34 126.408 641.038 190.771C642.962 197.048 644.77 204.146 645.355 213.658C648.163 258.321 611.744 253.396 606.492 254.265C581.242 258.562 556.005 260.783 530.807 268.461C495.103 278.987 479.384 291.879 463.964 303.708C450.715 313.848 437.687 323.07 412.333 329.395C336.57 348.275 343.357 295.114 257.947 305.736C213.48 311.289 170.105 274.303 125.886 308.005C115.77 315.731 106.096 318.676 95.9679 310.178C89.8439 305.06 81.1716 283.525 91.1832 270.054C93.6925 266.674 96.397 264.984 98.6073 258.755C100.61 253.106 102.417 241.228 101.208 230.654C100.558 225.005 99.3224 220.901 98.0612 217.617C94.8367 209.119 91.2742 204.436 87.6596 200.476C85.5403 198.159 83.408 196.131 81.3276 193.765C69.8209 180.632 57.833 175.755 47.0674 156.586C45.9622 154.606 44.662 149.536 45.3511 143.018C45.8582 138.19 47.3404 136.065 48.6536 134.761C55.3756 128.002 62.1757 122.98 69.0147 119.214L69.0277 119.166Z" stroke="url(#paint4_linear_361_67)" stroke-width="1.422" stroke-miterlimit="10"/>
<path opacity="0.35" d="M80.5345 119.987C93.3545 112.889 106.252 110.861 119.15 108.012C125.729 106.564 132.295 104.97 138.861 102.508C150.433 98.1621 161.901 88.795 173.07 75.2271C183.588 62.4801 193.535 43.1181 204.275 33.7992C214.533 24.8666 224.948 24.5769 235.323 29.0191C266.411 42.3938 296.576 69.9641 328.002 64.4597C352.25 60.5487 376.265 46.6911 400.514 47.7051C416.831 48.3811 433.019 61.6109 449.284 67.9362C455.174 70.2055 461.064 71.6541 466.967 71.4126C484.871 70.5435 502.788 73.1026 520.613 79.8141C528.766 82.9043 536.749 88.6018 544.732 94.396C554.952 101.88 558.124 102.894 566.159 108.06C588.861 122.739 612.213 127.422 631.052 189.613C632.925 195.793 634.641 202.794 635.187 211.92C637.748 255.086 602.474 250.161 597.312 251.078C573.011 255.424 548.737 257.645 524.488 265.177C490.241 275.462 475.067 287.968 460.167 299.459C447.373 309.309 434.813 318.242 410.473 324.326C337.74 342.529 343.838 291.927 261.886 301.246C218.798 306.123 176.749 270.489 133.882 302.694C124.078 310.082 114.691 312.882 104.874 304.819C98.9323 299.942 90.559 279.373 100.024 266.529C102.417 263.294 104.978 261.653 107.072 255.762C108.97 250.354 110.686 239.056 109.516 228.916C108.892 223.508 107.709 219.597 106.499 216.41C103.405 208.25 99.9855 203.76 96.5399 199.945C94.5116 197.724 92.4833 195.745 90.481 193.427C79.4943 180.728 67.8965 177.445 57.885 157.552C56.9098 155.62 55.7917 150.502 56.5588 144.08C57.1179 139.349 58.6131 137.224 59.9393 135.872C66.7393 128.919 73.6304 123.801 80.5475 119.938L80.5345 119.987Z" stroke="url(#paint5_linear_361_67)" stroke-width="1.422" stroke-miterlimit="10"/>
<path opacity="0.38" d="M92.0283 120.808C104.315 113.951 116.706 111.971 129.071 109.268C135.377 107.867 141.683 106.322 147.976 103.956C159.08 99.7556 170.066 90.7747 180.793 77.8345C190.883 65.6669 200.439 47.174 210.737 38.2414C220.579 29.6951 230.565 29.4054 240.524 33.6061C270.351 46.3049 299.28 72.3301 329.419 67.4534C352.758 63.6872 375.862 51.1816 399.188 52.437C414.894 53.3061 430.471 66.1014 446.138 72.0887C451.807 74.2615 457.476 75.6617 463.158 75.372C480.398 74.5512 497.639 76.9171 514.815 83.2906C522.668 86.1877 530.352 91.6438 538.036 97.1965C547.84 104.343 550.934 105.308 558.67 110.282C580.436 124.332 603.072 128.63 621.041 188.599C622.861 194.682 624.499 201.539 624.994 210.375C627.321 252.044 593.191 247.119 588.107 248.085C564.755 252.479 541.43 254.893 518.143 262.136C485.352 272.372 470.712 284.298 456.345 295.452C444.019 304.964 431.914 313.607 408.588 319.449C338.897 336.928 344.293 288.933 265.787 296.9C224.077 301.149 183.354 266.819 141.839 297.528C132.348 304.529 123.259 307.233 113.755 299.556C107.995 294.921 99.9205 275.317 108.827 263.101C111.089 260.011 113.521 258.466 115.497 252.817C117.291 247.699 118.916 236.883 117.785 227.226C117.174 222.06 116.043 218.342 114.886 215.3C111.921 207.526 108.658 203.18 105.368 199.463C103.431 197.29 101.494 195.358 99.5955 193.137C89.1289 180.873 78.7923 172.182 68.6507 158.518C67.9096 155.958 66.8824 151.42 67.7146 145.191C68.3256 140.556 69.8339 138.431 71.1731 137.031C78.0511 129.885 85.0202 124.622 92.0413 120.711L92.0283 120.808Z" stroke="url(#paint6_linear_361_67)" stroke-width="1.422" stroke-miterlimit="10"/>
<path opacity="0.42" d="M103.535 121.676C115.302 115.11 127.16 113.178 138.991 110.523C145.024 109.171 151.057 107.674 157.09 105.404C167.713 101.349 178.244 92.8023 188.516 80.4415C198.177 68.805 207.33 51.2295 217.198 42.7315C226.612 34.5715 236.194 34.2335 245.725 38.2411C274.277 50.2638 301.998 74.8888 330.836 70.5432C353.264 67.1151 375.459 55.72 397.874 57.2651C412.957 58.3273 427.922 70.6398 443.004 76.2891C448.452 78.3653 453.9 79.669 459.374 79.3793C475.951 78.5584 492.529 80.7795 509.028 86.7667C516.57 89.519 523.968 94.6854 531.353 99.9484C540.74 106.756 543.77 107.722 551.194 112.454C572.023 125.877 593.945 129.788 611.055 187.536C612.824 193.523 614.371 200.235 614.813 208.781C616.906 248.954 583.907 244.077 578.914 245.043C556.512 249.485 534.135 251.899 511.798 259.045C480.45 269.088 466.369 280.628 452.522 291.396C440.651 300.618 429.001 308.923 406.703 314.524C340.041 331.327 344.748 285.891 269.688 292.554C229.342 296.127 189.946 263.198 149.796 292.361C140.617 299.024 131.814 301.584 122.622 294.341C117.044 289.947 109.269 271.309 117.629 259.769C119.761 256.824 122.063 255.375 123.922 250.016C125.612 245.139 127.134 234.855 126.054 225.681C125.469 220.756 124.39 217.231 123.285 214.334C120.451 206.898 117.343 202.746 114.21 199.173C112.363 197.096 110.517 195.213 108.723 193.089C98.7762 181.259 89.0117 172.858 79.4422 159.773C78.8441 157.165 77.986 152.675 78.8961 146.543C79.5592 142.052 81.0805 139.879 82.4327 138.431C89.3888 131.14 96.4488 125.732 103.561 121.725L103.535 121.676Z" stroke="url(#paint7_linear_361_67)" stroke-width="1.422" stroke-miterlimit="10"/>
<path opacity="0.45" d="M115.042 122.497C126.288 116.172 137.613 114.337 148.925 111.778C154.698 110.474 160.458 109.026 166.218 106.805C176.372 102.942 186.436 94.7338 196.239 83.0007C205.484 71.9436 214.234 55.2373 223.66 47.1255C232.658 39.4 241.811 39.0138 250.913 42.8282C278.191 54.1267 304.689 77.4481 332.253 73.537C353.785 70.4468 375.056 60.1623 396.548 61.9971C411.019 63.2042 425.374 75.0821 439.845 80.4417C445.072 82.3731 450.311 83.6284 455.551 83.3387C471.453 82.5179 487.367 84.5458 503.217 90.2434C510.459 92.8507 517.558 97.7757 524.644 102.749C533.628 109.171 536.567 110.137 543.679 114.627C563.572 127.374 584.765 130.947 601.018 186.474C602.747 192.365 604.19 198.931 604.593 207.14C606.466 245.767 574.598 240.939 569.683 241.953C548.23 246.395 526.815 248.906 505.427 255.907C475.535 265.708 461.987 276.862 448.673 287.292C437.27 296.224 426.076 304.191 404.791 309.551C341.16 325.678 345.177 282.753 273.575 288.112C234.608 291.058 196.538 259.431 157.727 287.098C148.86 293.424 140.344 295.886 131.463 289.03C126.067 284.877 118.578 267.205 126.405 256.293C128.408 253.493 130.579 252.141 132.334 247.022C133.921 242.387 135.351 232.634 134.311 223.943C133.752 219.259 132.711 215.927 131.658 213.127C128.954 206.077 126.002 202.07 123.012 198.593C121.27 196.565 119.514 194.779 117.811 192.703C108.398 181.259 99.2053 173.147 90.1949 160.642C89.7528 157.938 89.0507 153.496 90.0259 147.509C90.741 143.115 92.2752 140.942 93.6534 139.445C100.688 131.961 107.839 126.408 115.042 122.352V122.497Z" stroke="url(#paint8_linear_361_67)" stroke-width="1.422" stroke-miterlimit="10"/>
<path opacity="0.48" d="M126.548 123.366C137.262 117.282 148.067 115.544 158.845 113.033C164.345 111.778 169.845 110.378 175.332 108.253C185.005 104.535 194.601 96.7615 203.962 85.6078C212.778 75.1301 221.125 59.2929 230.122 51.6157C238.704 44.2764 247.428 43.8902 256.113 47.4632C282.13 58.0858 307.393 80.0551 333.67 76.5786C354.292 73.8264 374.653 64.7007 395.235 66.7769C409.082 68.1772 422.838 79.5723 436.711 84.6421C441.717 86.4769 446.736 87.6357 451.755 87.346C466.993 86.5252 482.244 88.4083 497.418 93.7678C504.361 96.2303 511.161 100.769 517.961 105.549C526.542 111.585 529.403 112.55 536.203 116.848C555.16 128.967 575.625 132.154 591.032 185.508C592.709 191.302 594.075 197.724 594.426 205.642C596.064 242.773 565.34 237.945 560.503 239.007C539.999 243.497 519.534 246.056 499.095 252.913C470.66 262.473 457.658 273.24 444.877 283.332C433.929 291.975 423.189 299.604 402.932 304.77C342.33 320.221 345.658 279.807 277.502 283.911C239.913 286.181 203.169 255.906 165.71 282.076C157.155 288.064 148.938 290.381 140.37 283.911C135.156 280 127.966 263.294 135.234 253.009C137.119 250.354 139.147 249.098 140.786 244.27C142.268 239.924 143.594 230.702 142.606 222.445C142.073 218.052 141.085 214.817 140.084 212.209C137.522 205.498 134.701 201.683 131.879 198.352C130.228 196.42 128.564 194.682 126.952 192.654C118.058 181.645 109.438 173.775 100.986 161.897C100.687 159.145 100.154 154.703 101.208 148.908C101.975 144.611 103.509 142.438 104.913 140.942C112.025 133.264 119.267 127.615 126.548 123.463V123.366Z" stroke="url(#paint9_linear_361_67)" stroke-width="1.422" stroke-miterlimit="10"/>
<path opacity="0.51" d="M138.055 124.187C148.249 118.393 158.52 116.655 168.779 114.289C174.006 113.082 179.233 111.73 184.459 109.702C193.665 106.129 202.792 98.7413 211.699 88.2153C220.085 78.317 228.042 63.3489 236.597 56.0579C244.763 49.105 253.058 48.7187 261.314 52.0504C286.057 61.9486 310.098 82.6143 335.088 79.5724C354.812 77.1582 374.25 69.143 393.909 71.5089C407.145 73.1023 420.29 84.0145 433.565 88.7464C438.362 90.4846 443.147 91.5469 447.958 91.2572C462.533 90.4364 477.108 92.1263 491.632 97.1479C498.263 99.4172 504.777 103.715 511.278 108.253C519.443 113.903 522.225 114.868 528.726 118.972C546.747 130.464 566.484 133.313 581.034 184.398C582.659 190.095 583.933 196.372 584.232 203.953C585.636 239.538 556.044 234.806 551.298 235.869C531.743 240.359 512.227 242.966 492.75 249.726C465.771 259.045 453.302 269.426 441.054 279.18C430.574 287.485 420.29 294.824 401.047 299.749C343.474 314.524 346.1 276.572 281.415 279.421C245.192 281.014 209.774 252.14 173.681 276.765C165.437 282.415 157.506 284.587 149.25 278.552C144.218 274.882 137.327 259.142 144.049 249.533C145.804 247.022 147.703 245.863 149.224 241.325C150.602 237.221 151.837 228.529 150.875 220.756C150.355 216.603 149.432 213.561 148.47 211.099C146.038 204.774 143.373 201.104 140.708 197.869C139.147 195.986 137.587 194.296 136.066 192.413C127.693 181.838 119.657 174.21 111.765 162.911C111.622 160.062 111.245 155.717 112.376 150.019C113.195 145.818 114.743 143.646 116.16 142.101C123.35 134.23 130.683 128.436 138.055 124.235V124.187Z" stroke="url(#paint10_linear_361_67)" stroke-width="1.422" stroke-miterlimit="10"/>
<path opacity="0.54" d="M149.562 125.008C159.236 119.504 168.974 117.814 178.713 115.496C183.666 114.337 188.633 113.034 193.574 111.102C202.311 107.722 210.971 100.721 219.422 90.7745C227.379 81.4073 234.933 67.3566 243.06 60.452C250.809 53.8853 258.675 53.499 266.515 56.5892C289.997 65.8115 312.802 85.1252 336.505 82.5662C355.319 80.4899 373.847 73.5853 392.596 76.2409C405.221 78.0274 417.755 88.4568 430.431 92.899C435.008 94.4924 439.585 95.5063 444.162 95.2166C458.074 94.4441 471.986 95.9409 485.833 100.624C492.165 102.749 498.38 106.757 504.582 111.006C512.331 116.317 515.049 117.234 521.237 121.097C538.322 131.913 557.318 134.52 571.035 183.287C572.608 188.888 573.805 195.02 574.052 202.311C575.222 236.4 546.773 231.668 542.106 232.779C523.5 237.269 504.946 239.973 486.405 246.588C460.869 255.714 448.959 265.66 437.232 275.076C427.207 283.091 417.377 290.092 399.162 294.776C344.631 308.826 346.556 273.386 285.316 275.027C250.471 275.945 216.379 248.423 181.638 271.551C173.707 276.862 166.062 278.938 158.117 273.241C153.268 269.813 146.676 254.989 152.839 246.057C154.464 243.691 156.232 242.629 157.636 238.331C158.911 234.468 160.055 226.308 159.132 219.017C158.638 215.106 157.753 212.258 156.856 209.892C154.555 203.905 152.046 200.428 149.536 197.338C148.067 195.551 146.598 193.91 145.18 192.075C137.34 181.935 129.877 174.596 122.531 163.877C122.531 160.98 122.323 156.634 123.532 151.082C124.403 146.977 125.964 144.805 127.394 143.211C134.662 135.148 142.073 129.257 149.549 124.96L149.562 125.008Z" stroke="url(#paint11_linear_361_67)" stroke-width="1.422" stroke-miterlimit="10"/>
<path opacity="0.57" d="M161.056 125.877C170.196 120.614 179.415 119.021 188.62 116.8C193.314 115.689 197.995 114.434 202.675 112.599C210.932 109.364 219.123 102.797 227.132 93.4301C234.673 84.6423 241.824 71.4607 249.508 64.9906C256.842 58.8102 264.279 58.424 271.703 61.2727C293.91 69.819 315.507 87.7808 337.909 85.6563C355.813 83.9181 373.431 78.1722 391.256 81.0693C403.257 83.0007 415.193 92.9955 427.272 97.0997C431.628 98.5965 435.983 99.5139 440.352 99.2725C453.588 98.4999 466.837 99.8519 480.034 104.149C486.067 106.129 491.983 109.847 497.886 113.854C505.232 118.828 507.871 119.697 513.748 123.366C529.897 133.554 548.165 135.824 561.024 182.321C562.558 187.826 563.65 193.813 563.858 200.766C564.807 233.358 537.477 228.626 532.9 229.785C515.243 234.275 497.639 237.076 480.06 243.546C455.98 252.43 444.604 261.99 433.409 271.068C423.852 278.793 414.478 285.457 397.276 289.947C345.775 303.322 347.011 270.344 289.217 270.778C255.736 271.02 222.971 244.85 189.595 266.481C181.976 271.406 174.63 273.386 166.985 268.123C162.317 264.936 156.011 251.078 161.641 242.773C163.136 240.552 164.761 239.587 166.062 235.579C167.232 231.958 168.272 224.329 167.401 217.521C166.933 213.851 166.101 211.195 165.242 208.974C163.071 203.325 160.705 200.042 158.364 197.048C156.986 195.31 155.621 193.765 154.295 191.978C146.975 182.273 140.084 175.175 133.31 165.036C133.466 162.042 133.427 157.745 134.688 152.337C135.624 148.378 137.184 146.156 138.627 144.515C145.974 136.258 153.476 130.223 161.043 125.877H161.056Z" stroke="url(#paint12_linear_361_67)" stroke-width="1.422" stroke-miterlimit="10"/>
<path opacity="0.6" d="M172.563 126.698C181.183 121.725 189.868 120.18 198.554 118.007C202.974 116.896 207.395 115.738 211.803 113.951C219.591 110.861 227.314 104.68 234.868 95.941C241.98 87.7327 248.741 75.4202 255.984 69.3364C262.901 63.5423 269.909 63.156 276.904 65.7633C297.85 73.5854 318.211 90.2435 339.326 88.5535C356.333 87.1533 373.028 82.518 389.943 85.7047C401.333 87.8293 412.658 97.3413 424.125 101.156C428.26 102.556 432.395 103.377 436.542 103.135C449.115 102.363 461.688 103.522 474.222 107.529C479.943 109.364 485.573 112.792 491.19 116.558C498.12 121.145 500.681 122.015 506.259 125.491C521.472 135.051 538.985 137.031 551.012 181.211C552.494 186.667 553.495 192.461 553.652 199.125C554.367 230.171 528.181 225.488 523.682 226.695C506.974 231.137 490.319 234.034 473.689 240.408C451.066 249.05 440.235 258.225 429.56 266.964C420.459 274.351 411.553 280.725 395.365 284.974C346.894 297.673 347.427 267.061 293.104 266.336C260.989 265.902 229.563 241.084 197.539 261.218C190.232 265.805 183.172 267.64 175.852 262.763C171.366 259.818 165.36 246.926 170.43 239.297C171.796 237.221 173.291 236.303 174.487 232.586C175.553 229.254 176.502 222.156 175.67 215.783C175.228 212.354 174.435 209.892 173.642 207.816C171.601 202.553 169.39 199.414 167.193 196.565C165.906 194.924 164.631 193.427 163.396 191.737C156.596 182.418 150.29 175.61 144.062 166.098C144.361 163.056 144.491 158.807 145.831 153.544C146.819 149.681 148.392 147.46 149.861 145.77C157.285 137.321 164.878 131.189 172.524 126.746L172.563 126.698Z" stroke="url(#paint13_linear_361_67)" stroke-width="1.422" stroke-miterlimit="10"/>
<path opacity="0.63" d="M184.069 127.519C192.17 122.835 200.335 121.29 208.474 119.262C212.622 118.2 216.782 117.041 220.917 115.4C228.237 112.502 235.492 106.708 242.578 98.5483C249.262 90.8711 255.619 79.476 262.433 73.8267C268.934 68.4189 275.526 68.0326 282.092 70.3986C301.764 77.5446 320.903 92.899 340.744 91.5954C356.84 90.5814 372.625 87.0083 388.617 90.4848C399.383 92.8025 410.096 101.832 420.979 105.308C424.893 106.563 428.819 107.336 432.746 107.095C444.656 106.322 456.565 107.336 468.436 111.006C473.858 112.696 479.189 115.834 484.507 119.311C491.034 123.56 493.517 124.38 498.783 127.615C513.059 136.5 529.832 138.286 541.026 180.1C542.457 185.46 543.38 191.109 543.484 197.483C543.965 227.033 518.91 222.349 514.502 223.605C498.744 228.047 483.051 231.04 467.37 237.269C446.203 245.67 435.905 254.507 425.764 262.86C417.13 269.957 408.666 276.041 393.506 280.001C348.064 292.023 347.908 263.777 297.031 261.942C266.281 260.832 236.194 237.414 205.523 256.003C198.528 260.252 191.767 261.991 184.746 257.5C180.442 254.796 174.734 242.87 179.259 235.869C180.507 233.937 181.859 233.117 182.938 229.688C183.9 226.598 184.759 220.032 183.965 214.141C183.536 210.954 182.808 208.685 182.054 206.753C180.143 201.828 178.089 198.883 176.047 196.131C174.851 194.537 173.681 193.089 172.537 191.496C166.27 182.611 160.536 176.093 154.867 167.112C155.322 163.973 155.608 159.773 157.025 154.655C158.065 150.888 159.639 148.667 161.134 146.977C168.636 138.383 176.32 132.058 184.056 127.567L184.069 127.519Z" stroke="url(#paint14_linear_361_67)" stroke-width="1.422" stroke-miterlimit="10"/>
<path opacity="0.66" d="M195.576 128.388C203.143 123.994 210.789 122.497 218.408 120.517C222.295 119.503 226.17 118.393 230.044 116.848C236.884 114.096 243.671 108.688 250.315 101.155C256.569 94.0577 262.537 83.5317 268.908 78.2687C274.992 73.2954 281.155 72.8609 287.292 74.9854C305.69 81.4072 323.607 95.4579 342.161 94.6371C357.36 93.9611 372.221 91.5469 387.304 95.2648C397.458 97.7755 407.561 106.322 417.845 109.509C421.538 110.667 425.244 111.343 428.949 111.102C440.196 110.329 451.43 111.15 462.637 114.482C467.76 115.979 472.792 118.876 477.811 122.111C483.922 126.022 486.327 126.843 491.294 129.836C504.621 138.093 520.652 139.638 531.015 179.086C532.393 184.349 533.225 189.854 533.29 195.889C533.55 223.894 509.627 219.307 505.297 220.562C490.488 224.956 475.743 228.047 461.012 234.13C441.288 242.29 431.55 250.74 421.928 258.755C413.75 265.563 405.754 271.309 391.607 275.075C349.195 286.374 348.337 260.542 300.918 257.548C271.547 255.713 242.773 233.696 213.467 250.788C206.784 254.699 200.309 256.293 193.6 252.189C189.491 249.726 184.056 238.766 188.048 232.392C189.166 230.606 190.388 229.881 191.351 226.695C192.209 223.846 192.963 217.81 192.222 212.354C191.819 209.457 191.13 207.284 190.44 205.498C188.672 200.959 186.761 198.159 184.876 195.551C183.77 194.006 182.691 192.654 181.651 191.109C175.904 182.659 170.742 176.382 165.633 168.029C166.231 164.842 166.686 160.642 168.181 155.668C169.273 151.999 170.859 149.778 172.368 148.039C179.948 139.252 187.723 132.83 195.55 128.243L195.576 128.388Z" stroke="url(#paint15_linear_361_67)" stroke-width="1.422" stroke-miterlimit="10"/>
<path opacity="0.69" d="M207.083 129.209C214.13 125.056 221.242 123.656 228.341 121.773C231.956 120.807 235.57 119.745 239.172 118.297C245.543 115.689 251.862 110.716 258.051 103.763C263.876 97.2447 269.441 87.5878 275.383 82.7594C281.038 78.1724 286.785 77.7378 292.506 79.6209C309.643 85.3667 326.337 96.955 343.591 97.6792C357.88 98.2586 371.831 96.0375 385.991 100.045C395.521 102.749 405.025 110.813 414.712 113.661C418.197 114.724 421.668 115.303 425.166 115.062C435.736 114.337 446.32 114.965 456.851 117.959C461.662 119.311 466.408 121.918 471.128 124.863C476.823 128.388 479.163 129.161 483.818 131.961C496.222 139.493 511.486 140.894 521.029 178.024C522.356 183.191 523.11 188.55 523.11 194.296C523.136 220.756 500.356 216.217 496.105 217.521C482.244 221.818 468.449 225.101 454.68 231.04C436.412 238.959 427.207 247.022 418.119 254.7C410.408 261.218 402.854 266.626 389.735 270.151C350.365 280.773 348.792 257.21 304.845 253.203C276.839 250.644 249.405 230.026 221.45 245.622C215.079 249.195 208.89 250.644 202.506 246.974C198.58 244.753 193.444 234.71 196.876 229.061C197.865 227.419 198.957 226.791 199.802 223.894C200.556 221.287 201.219 215.783 200.517 210.809C200.14 208.154 199.503 206.174 198.853 204.532C197.214 200.332 195.446 197.724 193.73 195.213C192.729 193.765 191.728 192.461 190.791 191.013C185.565 182.998 180.988 176.962 176.437 169.188C177.178 165.905 177.802 161.801 179.376 156.972C180.52 153.448 182.119 151.178 183.64 149.392C191.299 140.411 199.152 133.844 207.083 129.209Z" stroke="url(#paint16_linear_361_67)" stroke-width="1.422" stroke-miterlimit="10"/>
<path opacity="0.72" d="M218.59 130.029C225.117 126.167 231.696 124.815 238.262 122.98C241.603 122.062 244.945 121.049 248.286 119.697C254.176 117.282 260.04 112.695 265.774 106.322C271.183 100.335 276.345 91.5951 281.845 87.1529C287.084 82.9522 292.402 82.4694 297.707 84.1593C313.569 89.2292 329.042 99.4654 345.008 100.624C358.387 101.59 371.441 100.431 384.677 104.728C393.597 107.577 402.49 115.206 411.579 117.765C414.842 118.683 418.106 119.214 421.369 118.972C431.277 118.248 441.184 118.731 451.066 121.338C455.577 122.545 460.024 124.863 464.458 127.567C469.75 130.754 472.012 131.478 476.355 134.085C487.822 140.942 502.32 142.197 511.044 176.913C512.318 181.983 512.981 187.198 512.942 192.606C512.747 217.569 491.086 213.03 486.925 214.382C474.014 218.631 461.181 222.011 448.348 227.853C431.537 235.531 422.877 243.208 414.322 250.547C407.067 256.727 399.981 261.845 387.876 265.129C351.535 275.075 349.26 253.734 308.772 248.712C282.131 245.429 256.036 226.26 229.433 240.311C223.375 243.546 217.485 244.898 211.4 241.566C207.655 239.586 202.805 230.509 205.705 225.487C206.563 223.991 207.525 223.459 208.253 220.804C208.903 218.486 209.475 213.465 208.812 208.974C208.461 206.56 207.863 204.773 207.278 203.277C205.77 199.462 204.158 197 202.597 194.634C201.687 193.234 200.79 192.026 199.932 190.626C195.238 182.997 191.221 177.251 187.242 170.105C188.139 166.774 188.919 162.67 190.557 157.986C191.754 154.558 193.366 152.288 194.9 150.454C202.636 141.28 210.581 134.616 218.59 129.885V130.029Z" stroke="url(#paint17_linear_361_67)" stroke-width="1.422" stroke-miterlimit="10"/>
<path opacity="0.75" d="M230.083 130.899C236.09 127.326 242.136 125.974 248.182 124.284C251.251 123.415 254.332 122.449 257.401 121.193C262.823 118.924 268.218 114.723 273.497 108.978C278.477 103.57 283.236 95.6993 288.306 91.6917C293.13 87.8773 298.019 87.3944 302.895 88.843C317.496 93.1886 331.746 102.169 346.412 103.715C358.894 105.066 371.025 105.018 383.338 109.557C391.633 112.599 399.929 119.745 408.406 122.014C411.448 122.835 414.491 123.27 417.533 123.028C426.778 122.304 436.022 122.594 445.228 124.911C449.44 125.974 453.588 128.002 457.723 130.416C462.598 133.265 464.783 133.94 468.826 136.355C479.345 142.583 493.088 143.694 500.993 175.948C502.228 180.969 502.801 185.991 502.71 191.109C502.28 214.527 481.763 210.037 477.681 211.437C465.719 215.589 453.835 219.162 441.964 224.86C426.609 232.247 418.483 239.586 410.46 246.588C403.673 252.478 397.029 257.259 385.952 260.349C352.64 269.619 349.663 250.45 312.633 244.511C287.344 240.456 262.588 222.735 237.352 235.289C231.605 238.138 226.001 239.393 220.228 236.496C216.665 234.758 212.102 226.646 214.455 222.252C215.183 220.9 216.015 220.466 216.639 218.1C217.185 216.024 217.654 211.582 217.042 207.526C216.717 205.353 216.171 203.76 215.625 202.359C214.247 198.883 212.791 196.613 211.387 194.344C210.567 193.04 209.761 191.882 209.007 190.53C204.834 183.335 201.401 177.879 197.969 171.313C199.009 167.884 199.958 163.877 201.674 159.29C202.922 155.958 204.548 153.689 206.095 151.806C213.909 142.439 221.944 135.679 230.044 130.85L230.083 130.899Z" stroke="url(#paint18_linear_361_67)" stroke-width="1.422" stroke-miterlimit="10"/>
<path opacity="0.78" d="M241.59 131.719C247.064 128.436 252.59 127.132 258.103 125.491C260.911 124.67 263.707 123.753 266.515 122.545C271.469 120.421 276.384 116.655 281.22 111.488C285.771 106.66 290.14 99.6587 294.768 96.0374C299.176 92.6092 303.636 92.1264 308.095 93.3818C321.423 97.0514 334.451 105.839 347.843 106.66C359.427 107.384 370.635 109.412 382.038 114.192C389.722 117.427 397.406 124.091 405.285 126.022C408.107 126.746 410.928 127.084 413.763 126.843C422.344 126.119 430.912 126.263 439.468 128.195C443.368 129.112 447.217 130.85 451.066 133.023C455.538 135.534 457.645 136.162 461.376 138.334C470.959 143.935 483.922 144.901 491.034 174.692C492.217 179.617 492.698 184.494 492.555 189.274C491.905 211.195 472.506 206.657 468.514 208.154C457.501 212.209 446.567 215.927 435.645 221.528C421.733 228.674 414.166 235.627 406.664 242.29C400.332 247.891 394.156 252.334 384.092 255.182C353.81 263.777 350.131 246.684 316.573 239.876C292.649 235.048 269.232 218.776 245.348 229.833C239.913 232.344 234.595 233.454 229.134 230.992C225.754 229.495 221.476 222.349 223.296 218.631C223.894 217.424 224.597 217.038 225.104 215.01C225.546 213.175 225.923 209.264 225.351 205.691C225.039 203.76 224.558 202.359 224.063 201.104C222.815 197.966 221.515 195.889 220.254 193.765C219.526 192.509 218.824 191.399 218.161 190.192C214.507 183.432 211.66 178.217 208.786 172.23C209.982 168.754 211.1 164.746 212.882 160.352C214.182 157.117 215.807 154.848 217.393 152.965C225.286 143.404 233.412 136.5 241.603 131.623L241.59 131.719Z" stroke="url(#paint19_linear_361_67)" stroke-width="1.422" stroke-miterlimit="10"/>
<path opacity="0.82" d="M253.097 132.589C258.051 129.595 263.044 128.34 268.036 126.746C270.572 125.974 273.107 125.105 275.642 123.994C280.115 122.063 284.575 118.635 288.957 114.096C293.078 109.799 297.044 103.715 301.243 100.528C305.235 97.4862 309.279 97.0033 313.296 98.0173C325.349 101.011 337.155 108.495 349.26 109.75C359.934 110.861 370.232 113.951 380.712 119.021C387.772 122.449 394.858 128.63 402.139 130.271C404.739 130.851 407.353 131.14 409.953 130.947C417.858 130.223 425.777 130.175 433.656 131.816C437.257 132.541 440.807 134.086 444.357 135.969C448.413 138.142 450.454 138.721 453.874 140.701C462.52 145.626 474.703 146.543 481.009 173.824C482.14 178.7 482.543 183.384 482.348 187.874C481.477 208.25 463.209 203.76 459.296 205.305C449.232 209.264 439.26 213.127 429.287 218.631C416.831 225.488 409.797 232.151 402.828 238.428C396.964 243.691 391.243 247.843 382.194 250.451C354.942 258.321 350.56 243.305 320.46 235.724C297.902 230.027 275.824 215.3 253.292 224.86C248.156 227.033 243.15 227.999 238.002 225.922C234.803 224.667 230.799 218.438 232.086 215.396C232.554 214.286 233.126 214.044 233.516 212.258C233.854 210.665 234.14 207.285 233.607 204.194C233.321 202.504 232.879 201.249 232.437 200.187C231.319 197.435 230.161 195.503 229.069 193.475C228.432 192.316 227.821 191.254 227.262 190.095C224.129 183.77 221.853 178.797 219.539 173.437C220.878 169.864 222.165 165.905 224.025 161.656C225.377 158.517 227.015 156.248 228.614 154.317C236.584 144.563 244.802 137.562 253.084 132.589H253.097Z" stroke="url(#paint20_linear_361_67)" stroke-width="1.422" stroke-miterlimit="10"/>
<path opacity="0.85" d="M264.604 133.409C269.037 130.705 273.51 129.498 277.957 128.002C280.219 127.277 282.495 126.456 284.757 125.443C288.762 123.656 292.753 120.662 296.667 116.703C300.372 112.985 303.935 107.77 307.692 104.97C311.268 102.314 314.883 101.831 318.484 102.604C329.276 104.873 339.846 111.102 350.664 112.744C360.442 114.241 369.816 118.441 379.386 123.753C385.834 127.374 392.296 133.071 398.993 134.375C401.385 134.858 403.764 135.051 406.157 134.858C413.399 134.182 420.641 133.941 427.87 135.244C431.172 135.824 434.423 137.079 437.686 138.672C441.327 140.459 443.29 141.087 446.411 142.825C454.121 147.122 465.498 147.991 471.037 172.713C472.103 177.493 472.428 182.032 472.194 186.232C471.102 205.063 453.952 200.621 450.129 202.215C441.015 206.029 431.992 210.085 422.968 215.493C411.969 222.059 405.481 228.385 399.032 234.324C393.623 239.297 388.357 243.111 380.335 245.526C356.125 252.72 351.028 239.587 324.387 231.33C303.194 224.763 282.443 211.63 261.275 219.645C256.452 221.48 251.732 222.349 246.895 220.659C243.879 219.645 240.277 214.913 240.914 211.968C241.278 211.244 241.694 210.857 241.967 209.361C242.201 208.057 242.383 205.16 241.902 202.553C241.642 201.152 241.252 200.042 240.862 199.076C239.887 196.662 238.873 194.924 237.937 193.04C237.391 191.93 236.884 190.964 236.402 189.902C233.802 184.011 232.099 179.328 230.344 174.499C231.839 170.878 233.282 166.967 235.219 162.815C236.623 159.821 238.275 157.503 239.887 155.524C247.935 145.625 256.243 138.479 264.604 133.409V133.409Z" stroke="url(#paint21_linear_361_67)" stroke-width="1.422" stroke-miterlimit="10"/>
<path opacity="0.88" d="M276.111 134.23C280.024 131.816 283.964 130.609 287.891 129.209C289.88 128.485 291.882 127.76 293.884 126.843C297.421 125.201 300.932 122.594 304.403 119.262C307.68 116.124 310.852 111.778 314.168 109.412C317.327 107.191 320.513 106.66 323.698 107.191C333.216 108.785 342.577 113.758 352.094 115.738C360.962 117.621 369.426 122.884 378.085 128.485C383.91 132.251 389.774 137.514 395.872 138.528C398.044 138.914 400.202 139.059 402.373 138.817C408.952 138.142 415.531 137.755 422.084 138.673C425.075 139.107 428.039 140.073 431.004 141.425C434.241 142.873 436.126 143.453 438.935 144.95C445.709 148.619 456.28 149.44 461.038 171.651C462.052 176.383 462.299 180.728 462 184.591C460.687 201.925 444.669 197.435 440.924 199.125C432.759 202.794 424.685 207.043 416.623 212.354C407.067 218.631 401.125 224.619 395.209 230.22C390.268 234.903 385.458 238.428 378.45 240.552C357.269 247.071 351.47 235.724 328.301 226.936C308.46 219.404 289.061 207.912 269.246 214.431C264.734 215.927 260.3 216.652 255.776 215.348C252.941 214.576 249.639 210.858 249.73 208.54C249.977 207.961 250.25 207.671 250.406 206.415C250.549 205.353 250.627 203.036 250.185 200.863C249.951 199.704 249.6 198.787 249.262 197.966C248.416 195.938 247.558 194.344 246.778 192.558C246.323 191.544 245.907 190.627 245.53 189.613C243.45 184.108 242.332 179.714 241.122 175.514C242.761 171.796 244.373 167.933 246.375 163.974C247.844 161.077 249.496 158.759 251.121 156.731C259.247 146.64 267.633 139.397 276.098 134.23H276.111Z" stroke="url(#paint22_linear_361_67)" stroke-width="1.422" stroke-miterlimit="10"/>
<path opacity="0.91" d="M287.617 135.099C291.011 133.023 294.417 131.816 297.824 130.512C299.553 129.836 301.282 129.16 303.012 128.34C306.067 126.891 309.123 124.67 312.139 121.918C314.987 119.359 317.756 115.834 320.642 113.903C323.386 112.068 326.142 111.537 328.899 111.826C337.155 112.696 345.281 116.462 353.511 118.779C361.742 121.097 369.023 127.374 376.759 133.265C381.973 137.224 387.226 142.004 392.712 142.68C394.663 142.921 396.613 143.018 398.563 142.777C404.479 142.101 410.382 141.521 416.285 142.149C418.977 142.439 421.642 143.115 424.307 144.177C427.129 145.287 428.936 145.819 431.445 147.122C437.283 150.164 447.035 150.985 451.039 170.588C451.989 175.272 452.158 179.424 451.82 182.997C450.285 198.786 435.398 194.296 431.731 196.082C424.502 199.559 417.39 204.001 410.278 209.264C402.178 215.203 396.782 220.901 391.386 226.164C386.901 230.557 382.545 233.744 376.564 235.627C358.413 241.47 351.925 231.765 332.201 222.542C313.725 213.899 295.666 204.194 277.203 209.216C273.003 210.375 268.868 210.954 264.656 210.085C262.003 209.554 259 206.802 258.532 205.112C258.649 204.677 258.792 204.436 258.844 203.518C258.883 202.697 258.857 200.911 258.467 199.221C258.246 198.304 257.96 197.579 257.674 196.903C256.959 195.213 256.256 193.813 255.632 192.171C255.268 191.254 254.956 190.337 254.67 189.419C253.11 184.349 252.564 180.197 251.927 176.576C253.721 172.761 255.489 168.947 257.57 165.132C259.091 162.332 260.755 160.014 262.393 157.938C270.598 147.653 279.075 140.314 287.63 135.051L287.617 135.099Z" stroke="url(#paint23_linear_361_67)" stroke-width="1.422" stroke-miterlimit="10"/>
<path opacity="0.94" d="M299.111 135.92C301.972 134.134 304.858 132.975 307.731 131.719C309.188 131.092 310.644 130.464 312.113 129.692C314.701 128.388 317.288 126.601 319.849 124.429C322.268 122.401 324.647 119.793 327.091 118.296C329.406 116.848 331.746 116.317 334.087 116.365C341.069 116.558 347.973 119.069 354.916 121.773C361.859 124.477 368.607 131.864 375.433 137.996C380.023 142.149 384.677 146.446 389.566 146.832C391.295 146.977 393.025 146.977 394.754 146.736C400.007 146.06 405.247 145.336 410.473 145.577C412.866 145.722 415.232 146.156 417.598 146.929C419.965 147.702 421.746 148.184 423.943 149.295C428.845 151.709 437.765 152.53 441.015 169.526C441.899 174.161 442.003 178.121 441.613 181.356C439.871 195.648 426.089 191.109 422.5 192.992C416.22 196.276 410.07 200.911 403.907 206.126C397.263 211.726 392.401 217.134 387.551 222.059C383.533 226.115 379.633 229.012 374.666 230.702C359.544 235.82 352.367 227.66 336.102 218.197C319.004 208.25 302.258 200.573 285.16 204.049C281.272 204.822 277.424 205.353 273.523 204.822C271.053 204.532 268.348 202.746 267.334 201.732C267.334 201.442 267.334 201.249 267.269 200.621C267.204 199.993 267.087 198.786 266.736 197.579C266.541 196.903 266.294 196.372 266.06 195.841C265.475 194.489 264.916 193.282 264.461 191.737C264.201 190.868 263.967 190.047 263.785 189.226C262.758 184.591 262.784 180.68 262.706 177.686C264.643 173.823 266.58 170.057 268.738 166.339C270.312 163.635 271.976 161.318 273.653 159.241C281.936 148.764 290.504 141.376 299.15 135.968L299.111 135.92Z" stroke="url(#paint24_linear_361_67)" stroke-width="1.422" stroke-miterlimit="10"/>
<path opacity="0.97" d="M310.618 136.741C312.958 135.244 315.312 134.134 317.665 132.975C318.848 132.395 320.044 131.816 321.241 131.14C323.36 129.981 325.466 128.581 327.585 127.036C329.575 125.587 331.551 123.849 333.566 122.739C335.465 121.676 337.376 121.145 339.287 120.952C345.008 120.469 350.677 121.821 356.346 124.767C362.496 127.953 368.217 136.306 374.12 142.728C378.098 147.074 382.142 150.888 386.433 150.937C387.941 150.937 389.449 150.888 390.97 150.647C395.547 149.971 400.124 149.102 404.7 149.005C406.781 149.005 408.861 149.15 410.941 149.633C413.022 150.116 414.595 150.502 416.493 151.371C420.446 153.158 428.52 154.027 431.042 168.367C431.862 173.003 431.901 176.72 431.445 179.666C429.482 192.461 416.818 187.826 413.321 189.854C407.99 192.944 402.776 197.724 397.588 202.89C392.4 208.057 388.084 213.272 383.754 217.859C380.192 221.625 376.746 224.184 372.806 225.632C360.715 230.075 352.861 223.122 340.028 213.658C324.322 202.07 308.889 196.71 293.143 198.69C289.568 199.124 286.018 199.511 282.417 199.414C280.128 199.366 277.71 199.076 276.15 198.159C276.007 198.062 275.877 197.917 275.707 197.579C275.525 197.193 275.33 196.517 275.018 195.793C274.849 195.358 274.654 194.972 274.472 194.586C274.017 193.62 273.614 192.558 273.302 191.157C273.133 190.385 272.99 189.612 272.899 188.84C272.392 184.639 273.003 181.018 273.471 178.555C275.564 174.596 277.671 170.878 279.894 167.353C281.519 164.746 283.197 162.428 284.887 160.304C293.247 149.633 301.907 142.197 310.631 136.644L310.618 136.741Z" stroke="url(#paint25_linear_361_67)" stroke-width="1.422" stroke-miterlimit="10"/>
<path d="M322.125 137.61C323.945 136.403 325.765 135.292 327.585 134.23C337.454 128.484 347.778 120.614 357.75 127.808C366.526 134.134 374.107 155.717 383.273 155.137C391.854 154.606 400.384 150.261 408.978 153.64C411.994 154.799 419.198 155.717 421.018 167.401C424.853 192.026 408.302 184.156 404.102 186.86C395.794 192.22 387.98 204.87 379.906 213.899C367.229 228.095 356.398 221.625 343.903 209.409C324.361 190.337 304.91 192.992 284.926 194.827C283.847 194.924 282.521 194.441 282.104 190.819C281.571 186.184 283.002 181.887 284.224 179.714C296.173 158.276 309.084 146.06 322.112 137.562L322.125 137.61Z" stroke="url(#paint26_linear_361_67)" stroke-width="1.422" stroke-miterlimit="10"/>
<path d="M365.424 173.602C366.616 166.207 364.601 157.679 366.836 156.972C368.129 156.563 370.076 159.014 371.55 161.209C369.855 158.047 367.5 155.291 364.669 153.127C365.725 153.987 366.408 154.844 366.232 155.561C365.681 157.816 357.537 155.068 352.222 159.29C346.393 163.92 350.121 172.052 344.763 180.356C342.323 184.137 338.192 187.657 331.194 190.022C335.28 194.414 340.927 197.334 347.252 197.899C360.46 188.656 364.394 180.002 365.425 173.603L365.424 173.602Z" fill="#F7565B"/>
<path d="M344.762 180.356C350.121 172.052 346.392 163.92 352.221 159.29C357.536 155.068 365.68 157.816 366.231 155.561C366.406 154.844 365.723 153.987 364.668 153.127C363.469 152.211 362.187 151.401 360.832 150.71C362.192 151.737 363.284 152.859 363.036 153.717C362.418 155.849 354.58 152.708 349.132 156.303C342.331 160.793 346.404 171.068 339.182 179.091C335.699 182.961 331.124 184.603 327.778 185.382C328.737 187.06 329.886 188.615 331.193 190.021C338.191 187.656 342.322 184.136 344.762 180.355V180.356Z" fill="#C7A5AB"/>
<path d="M339.182 179.092C346.404 171.069 342.331 160.793 349.132 156.304C354.58 152.708 362.417 155.849 363.036 153.718C363.284 152.86 362.192 151.738 360.832 150.711C357.43 148.977 353.58 148 349.5 148C335.693 148 324.5 159.193 324.5 173C324.5 177.505 325.693 181.732 327.778 185.383C331.124 184.605 335.7 182.962 339.182 179.092Z" fill="#95F8FF"/>
<path d="M368.308 179.863C370.963 170.312 367.478 161.048 369.063 160.644C370.156 160.366 372.681 164.559 373.776 168.764C374.237 170.533 374.467 172.393 374.463 174.284C374.485 173.858 374.496 173.429 374.496 172.998C374.496 170.771 374.206 168.613 373.661 166.559C373.643 166.493 373.625 166.427 373.607 166.362C373.577 166.25 373.545 166.137 373.513 166.025C373.477 165.901 373.44 165.776 373.403 165.652C373.388 165.602 373.372 165.553 373.356 165.502C372.886 164.005 372.278 162.57 371.549 161.209C370.076 159.013 368.129 156.563 366.835 156.972C364.601 157.68 366.616 166.207 365.423 173.602C364.392 180.002 360.458 188.656 347.25 197.898C347.991 197.963 348.742 197.999 349.499 197.999C351.348 197.999 353.149 197.796 354.884 197.416C360.026 193.72 366.038 188.027 368.307 179.862L368.308 179.863Z" fill="#B13135"/>
<path d="M373.776 168.764C372.681 164.559 370.156 160.365 369.063 160.644C367.478 161.048 370.963 170.312 368.308 179.863C366.038 188.028 360.026 193.721 354.885 197.416C363.264 195.576 370.071 189.535 372.978 181.609C372.981 181.601 372.984 181.594 372.986 181.586C373.049 181.413 373.11 181.24 373.169 181.067C373.176 181.046 373.184 181.026 373.191 181.005C373.251 180.829 373.307 180.653 373.363 180.476C373.401 180.357 373.435 180.237 373.471 180.115C373.486 180.065 373.502 180.015 373.516 179.964C373.558 179.821 373.597 179.677 373.636 179.533C373.642 179.509 373.649 179.486 373.655 179.462C374.097 177.798 374.374 176.066 374.463 174.284C374.467 172.393 374.238 170.533 373.776 168.764Z" fill="#6C0D0F"/>
<g filter="url(#filter0_d_361_67)">
<rect x="601.5" y="112" width="75" height="74" rx="37" fill="#030E40"/>
</g>
<g filter="url(#filter1_d_361_67)">
<rect x="133.5" y="222" width="113" height="116" rx="56.5" fill="#C7A5AB"/>
</g>
<g filter="url(#filter2_d_361_67)">
<rect x="451.5" y="227" width="105" height="105" rx="52.5" fill="#C7A5AB"/>
</g>
<g filter="url(#filter3_d_361_67)">
<rect x="74.5" y="51" width="73" height="73" rx="36.5" fill="#6D0808"/>
</g>
<g filter="url(#filter4_d_361_67)">
<rect x="394.5" y="6" width="57" height="58" rx="28.5" fill="#95F8FF"/>
</g>
</g>
<defs>
<filter id="filter0_d_361_67" x="578.5" y="93" width="121" height="120" filterUnits="userSpaceOnUse" color-interpolation-filters="sRGB">
<feFlood flood-opacity="0" result="BackgroundImageFix"/>
<feColorMatrix in="SourceAlpha" type="matrix" values="0 0 0 0 0 0 0 0 0 0 0 0 0 0 0 0 0 0 127 0" result="hardAlpha"/>
<feMorphology radius="10" operator="dilate" in="SourceAlpha" result="effect1_dropShadow_361_67"/>
<feOffset dy="4"/>
<feGaussianBlur stdDeviation="6.5"/>
<feComposite in2="hardAlpha" operator="out"/>
<feColorMatrix type="matrix" values="0 0 0 0 0.941176 0 0 0 0 0.341176 0 0 0 0 0.360784 0 0 0 1 0"/>
<feBlend mode="normal" in2="BackgroundImageFix" result="effect1_dropShadow_361_67"/>
<feBlend mode="normal" in="SourceGraphic" in2="effect1_dropShadow_361_67" result="shape"/>
</filter>
<filter id="filter1_d_361_67" x="110.5" y="203" width="159" height="162" filterUnits="userSpaceOnUse" color-interpolation-filters="sRGB">
<feFlood flood-opacity="0" result="BackgroundImageFix"/>
<feColorMatrix in="SourceAlpha" type="matrix" values="0 0 0 0 0 0 0 0 0 0 0 0 0 0 0 0 0 0 127 0" result="hardAlpha"/>
<feMorphology radius="10" operator="dilate" in="SourceAlpha" result="effect1_dropShadow_361_67"/>
<feOffset dy="4"/>
<feGaussianBlur stdDeviation="6.5"/>
<feComposite in2="hardAlpha" operator="out"/>
<feColorMatrix type="matrix" values="0 0 0 0 0.941176 0 0 0 0 0.341176 0 0 0 0 0.360784 0 0 0 1 0"/>
<feBlend mode="normal" in2="BackgroundImageFix" result="effect1_dropShadow_361_67"/>
<feBlend mode="normal" in="SourceGraphic" in2="effect1_dropShadow_361_67" result="shape"/>
</filter>
<filter id="filter2_d_361_67" x="428.5" y="208" width="151" height="151" filterUnits="userSpaceOnUse" color-interpolation-filters="sRGB">
<feFlood flood-opacity="0" result="BackgroundImageFix"/>
<feColorMatrix in="SourceAlpha" type="matrix" values="0 0 0 0 0 0 0 0 0 0 0 0 0 0 0 0 0 0 127 0" result="hardAlpha"/>
<feMorphology radius="10" operator="dilate" in="SourceAlpha" result="effect1_dropShadow_361_67"/>
<feOffset dy="4"/>
<feGaussianBlur stdDeviation="6.5"/>
<feComposite in2="hardAlpha" operator="out"/>
<feColorMatrix type="matrix" values="0 0 0 0 0.941176 0 0 0 0 0.341176 0 0 0 0 0.360784 0 0 0 1 0"/>
<feBlend mode="normal" in2="BackgroundImageFix" result="effect1_dropShadow_361_67"/>
<feBlend mode="normal" in="SourceGraphic" in2="effect1_dropShadow_361_67" result="shape"/>
</filter>
<filter id="filter3_d_361_67" x="51.5" y="32" width="119" height="119" filterUnits="userSpaceOnUse" color-interpolation-filters="sRGB">
<feFlood flood-opacity="0" result="BackgroundImageFix"/>
<feColorMatrix in="SourceAlpha" type="matrix" values="0 0 0 0 0 0 0 0 0 0 0 0 0 0 0 0 0 0 127 0" result="hardAlpha"/>
<feMorphology radius="10" operator="dilate" in="SourceAlpha" result="effect1_dropShadow_361_67"/>
<feOffset dy="4"/>
<feGaussianBlur stdDeviation="6.5"/>
<feComposite in2="hardAlpha" operator="out"/>
<feColorMatrix type="matrix" values="0 0 0 0 0.941176 0 0 0 0 0.341176 0 0 0 0 0.360784 0 0 0 1 0"/>
<feBlend mode="normal" in2="BackgroundImageFix" result="effect1_dropShadow_361_67"/>
<feBlend mode="normal" in="SourceGraphic" in2="effect1_dropShadow_361_67" result="shape"/>
</filter>
<filter id="filter4_d_361_67" x="371.5" y="-13" width="103" height="104" filterUnits="userSpaceOnUse" color-interpolation-filters="sRGB">
<feFlood flood-opacity="0" result="BackgroundImageFix"/>
<feColorMatrix in="SourceAlpha" type="matrix" values="0 0 0 0 0 0 0 0 0 0 0 0 0 0 0 0 0 0 127 0" result="hardAlpha"/>
<feMorphology radius="10" operator="dilate" in="SourceAlpha" result="effect1_dropShadow_361_67"/>
<feOffset dy="4"/>
<feGaussianBlur stdDeviation="6.5"/>
<feComposite in2="hardAlpha" operator="out"/>
<feColorMatrix type="matrix" values="0 0 0 0 0.941176 0 0 0 0 0.341176 0 0 0 0 0.360784 0 0 0 1 0"/>
<feBlend mode="normal" in2="BackgroundImageFix" result="effect1_dropShadow_361_67"/>
<feBlend mode="normal" in="SourceGraphic" in2="effect1_dropShadow_361_67" result="shape"/>
</filter>
<linearGradient id="paint0_linear_361_67" x1="6.85695e-05" y1="178.024" x2="687" y2="178.024" gradientUnits="userSpaceOnUse">
<stop stop-color="#A6DDEB"/>
<stop offset="1" stop-color="#F0575C"/>
</linearGradient>
<linearGradient id="paint1_linear_361_67" x1="11.1426" y1="177.879" x2="676.78" y2="177.879" gradientUnits="userSpaceOnUse">
<stop stop-color="#A6DDEB"/>
<stop offset="1" stop-color="#F0575C"/>
</linearGradient>
<linearGradient id="paint2_linear_361_67" x1="22.2855" y1="177.735" x2="666.574" y2="177.735" gradientUnits="userSpaceOnUse">
<stop stop-color="#A6DDEB"/>
<stop offset="1" stop-color="#F0575C"/>
</linearGradient>
<linearGradient id="paint3_linear_361_67" x1="33.4021" y1="177.59" x2="656.367" y2="177.59" gradientUnits="userSpaceOnUse">
<stop stop-color="#A6DDEB"/>
<stop offset="1" stop-color="#F0575C"/>
</linearGradient>
<linearGradient id="paint4_linear_361_67" x1="44.532" y1="177.445" x2="646.161" y2="177.445" gradientUnits="userSpaceOnUse">
<stop stop-color="#A6DDEB"/>
<stop offset="1" stop-color="#F0575C"/>
</linearGradient>
<linearGradient id="paint5_linear_361_67" x1="55.6356" y1="177.3" x2="635.954" y2="177.3" gradientUnits="userSpaceOnUse">
<stop stop-color="#A6DDEB"/>
<stop offset="1" stop-color="#F0575C"/>
</linearGradient>
<linearGradient id="paint6_linear_361_67" x1="66.7394" y1="177.155" x2="625.748" y2="177.155" gradientUnits="userSpaceOnUse">
<stop stop-color="#A6DDEB"/>
<stop offset="1" stop-color="#F0575C"/>
</linearGradient>
<linearGradient id="paint7_linear_361_67" x1="77.83" y1="177.01" x2="615.541" y2="177.01" gradientUnits="userSpaceOnUse">
<stop stop-color="#A6DDEB"/>
<stop offset="1" stop-color="#F0575C"/>
</linearGradient>
<linearGradient id="paint8_linear_361_67" x1="88.8947" y1="176.865" x2="605.347" y2="176.865" gradientUnits="userSpaceOnUse">
<stop stop-color="#A6DDEB"/>
<stop offset="1" stop-color="#F0575C"/>
</linearGradient>
<linearGradient id="paint9_linear_361_67" x1="99.9333" y1="176.72" x2="595.141" y2="176.72" gradientUnits="userSpaceOnUse">
<stop stop-color="#A6DDEB"/>
<stop offset="1" stop-color="#F0575C"/>
</linearGradient>
<linearGradient id="paint10_linear_361_67" x1="110.933" y1="176.576" x2="584.934" y2="176.576" gradientUnits="userSpaceOnUse">
<stop stop-color="#A6DDEB"/>
<stop offset="1" stop-color="#F0575C"/>
</linearGradient>
<linearGradient id="paint11_linear_361_67" x1="121.881" y1="176.431" x2="574.741" y2="176.431" gradientUnits="userSpaceOnUse">
<stop stop-color="#A6DDEB"/>
<stop offset="1" stop-color="#F0575C"/>
</linearGradient>
<linearGradient id="paint12_linear_361_67" x1="132.581" y1="176.286" x2="564.547" y2="176.286" gradientUnits="userSpaceOnUse">
<stop stop-color="#A6DDEB"/>
<stop offset="1" stop-color="#F0575C"/>
</linearGradient>
<linearGradient id="paint13_linear_361_67" x1="143.282" y1="176.141" x2="554.341" y2="176.141" gradientUnits="userSpaceOnUse">
<stop stop-color="#A6DDEB"/>
<stop offset="1" stop-color="#F0575C"/>
</linearGradient>
<linearGradient id="paint14_linear_361_67" x1="153.97" y1="175.996" x2="544.147" y2="175.996" gradientUnits="userSpaceOnUse">
<stop stop-color="#A6DDEB"/>
<stop offset="1" stop-color="#F0575C"/>
</linearGradient>
<linearGradient id="paint15_linear_361_67" x1="164.683" y1="175.851" x2="533.953" y2="175.851" gradientUnits="userSpaceOnUse">
<stop stop-color="#A6DDEB"/>
<stop offset="1" stop-color="#F0575C"/>
</linearGradient>
<linearGradient id="paint16_linear_361_67" x1="175.397" y1="175.707" x2="523.773" y2="175.707" gradientUnits="userSpaceOnUse">
<stop stop-color="#A6DDEB"/>
<stop offset="1" stop-color="#F0575C"/>
</linearGradient>
<linearGradient id="paint17_linear_361_67" x1="186.124" y1="175.561" x2="513.592" y2="175.561" gradientUnits="userSpaceOnUse">
<stop stop-color="#A6DDEB"/>
<stop offset="1" stop-color="#F0575C"/>
</linearGradient>
<linearGradient id="paint18_linear_361_67" x1="196.863" y1="175.417" x2="503.412" y2="175.417" gradientUnits="userSpaceOnUse">
<stop stop-color="#A6DDEB"/>
<stop offset="1" stop-color="#F0575C"/>
</linearGradient>
<linearGradient id="paint19_linear_361_67" x1="207.616" y1="175.272" x2="493.231" y2="175.272" gradientUnits="userSpaceOnUse">
<stop stop-color="#A6DDEB"/>
<stop offset="1" stop-color="#F0575C"/>
</linearGradient>
<linearGradient id="paint20_linear_361_67" x1="218.395" y1="175.079" x2="483.077" y2="175.079" gradientUnits="userSpaceOnUse">
<stop stop-color="#A6DDEB"/>
<stop offset="1" stop-color="#F0575C"/>
</linearGradient>
<linearGradient id="paint21_linear_361_67" x1="229.199" y1="174.934" x2="472.909" y2="174.934" gradientUnits="userSpaceOnUse">
<stop stop-color="#A6DDEB"/>
<stop offset="1" stop-color="#F0575C"/>
</linearGradient>
<linearGradient id="paint22_linear_361_67" x1="240.056" y1="174.741" x2="462.767" y2="174.741" gradientUnits="userSpaceOnUse">
<stop stop-color="#A6DDEB"/>
<stop offset="1" stop-color="#F0575C"/>
</linearGradient>
<linearGradient id="paint23_linear_361_67" x1="250.978" y1="174.548" x2="452.626" y2="174.548" gradientUnits="userSpaceOnUse">
<stop stop-color="#A6DDEB"/>
<stop offset="1" stop-color="#F0575C"/>
</linearGradient>
<linearGradient id="paint24_linear_361_67" x1="261.99" y1="174.354" x2="442.497" y2="174.354" gradientUnits="userSpaceOnUse">
<stop stop-color="#A6DDEB"/>
<stop offset="1" stop-color="#F0575C"/>
</linearGradient>
<linearGradient id="paint25_linear_361_67" x1="272.041" y1="174.016" x2="432.382" y2="174.016" gradientUnits="userSpaceOnUse">
<stop stop-color="#A6DDEB"/>
<stop offset="1" stop-color="#F0575C"/>
</linearGradient>
<linearGradient id="paint26_linear_361_67" x1="281.363" y1="173.485" x2="422.253" y2="173.485" gradientUnits="userSpaceOnUse">
<stop stop-color="#A6DDEB"/>
<stop offset="1" stop-color="#F0575C"/>
</linearGradient>
<clipPath id="clip0_361_67">
<rect width="687" height="356" fill="white"/>
</clipPath>
</defs>
</svg>
